# xmcd
#
# Track frame offsets:
# 150
# 20310
# 35215
# 54610
# 68940
# 89540
# 106240
# 125793
# 141535
# 158733
#
# Disc length: 2354 seconds
#
# Revision: 2
# Processed by: cddbd v1.4PL0 Copyright (c) Steve Scherf et al.
# Submitted via: Axialis_AX_CDPlayer 2.6
#
DISCID=9309300a
DTITLE=Anne Murray - As I Am
DYEAR=1900
DGENRE=
TTITLE0=Flying On Your Own
TTITLE1=If I Don't Fall Tonight
TTITLE2=You Make Me Curious
TTITLE3=As I Am
TTITLE4=I'm Losing Your Love
TTITLE5=I'll Be Your Eyes
TTITLE6=Slow All Night
TTITLE7=Who, But You
TTITLE8=Take It From My Heart
TTITLE9=Slow Passin' Time
EXTD=
EXTT0=
EXTT1=
EXTT2=
EXTT3=
EXTT4=
EXTT5=
EXTT6=
EXTT7=
EXTT8=
EXTT9=
PLAYORDER=
